<?xml version="1.0" encoding="UTF-8"?>
<!-- Generated by Pixelmator Pro 3.4.3 -->
<svg width="8643" height="1596" viewBox="0 0 8643 1596" xmlns="http://www.w3.org/2000/svg">
    <path id="Path" fill="#f6b26b" stroke="none" d="M 771.934509 1553.500854 C 734.12323 1550.68396 672.543457 1542.87085 654.737976 1538.183105 C 644.416321 1535.674561 633.477966 1530.678345 630.681946 1527.244751 C 627.865051 1523.502686 624.739807 1512.564331 623.485535 1501.296875 C 620.668701 1473.807251 622.868835 1106.283081 625.99408 1103.466187 C 627.227478 1101.903564 637.857483 1100.340942 649.433411 1100.032593 C 744.753235 1095.653076 784.127075 1088.456787 838.181213 1065.325684 C 896.327454 1040.653076 939.751587 1005.946167 971.641541 959.067566 C 996.00592 922.81897 997.568542 924.073242 1047.264038 1026.589478 C 1069.449097 1072.522217 1100.393188 1135.335327 1115.710938 1166.279419 C 1141.658813 1218.154297 1184.466309 1307.861084 1217.589722 1380.358398 C 1225.09436 1396.601318 1231.344849 1412.86499 1231.344849 1416.607056 C 1231.344849 1430.053833 1202.271851 1449.113647 1131.953979 1481.620361 C 1032.58374 1528.190552 943.514343 1548.812988 826.626221 1553.192505 C 806.003784 1553.809204 781.310242 1554.117676 771.934509 1553.500854 Z"/>
    <path id="path1" fill="#f6b26b" stroke="none" d="M 477.545135 1475.986572 C 448.780396 1465.685791 354.714844 1404.106079 311.907349 1367.549072 C 265.028778 1327.537598 208.445221 1263.161865 173.450867 1210.341064 C 130.951767 1145.656982 112.817024 1109.408325 92.194603 1047.520264 C 65.938416 968.134949 53.745808 904.067505 50.94976 828.753357 C 47.82452 740.30072 58.43367 661.552979 86.25248 572.483643 C 102.187042 521.863037 107.512451 508.107788 129.697495 464.971191 C 234.084702 259.959595 424.086853 109.331299 638.165833 61.506714 C 704.125122 46.826416 727.872742 43.37207 783.489502 40.884277 C 913.187012 34.633789 1071.011719 72.136719 1176.653198 134.004028 C 1280.731934 194.637817 1349.158203 254.017456 1420.730347 344.341064 C 1525.734253 477.163818 1580.755127 652.177246 1574.175537 831.878601 C 1571.050293 911.880615 1562.312012 961.2677 1537.61853 1038.76123 C 1514.179199 1112.204468 1464.175293 1204.728149 1416.35083 1263.161865 C 1391.98645 1292.851563 1348.541382 1336.60498 1343.236816 1336.60498 C 1341.036743 1336.60498 1336.040405 1331.917114 1332.606812 1326.283447 C 1318.543213 1305.661011 1154.776489 974.385437 1143.838135 945.641541 C 1140.404541 936.265808 1129.157837 913.443237 1118.527832 894.383423 C 1107.897827 875.631958 1090.092285 840.308411 1078.824829 816.25238 C 1067.578125 792.196411 1056.94812 769.68219 1054.768799 766.248535 C 1052.589478 762.814941 1037.888306 734.687744 1022.262146 703.743713 C 988.522034 637.805298 973.820923 616.545349 937.880615 580.296753 C 912.878723 555.2948 907.574097 551.552856 863.82074 529.676147 C 837.564575 516.537598 807.258057 499.040405 796.628052 490.281494 C 785.689697 481.851685 770.371887 471.22168 762.558777 466.842163 C 722.239014 443.732056 639.111755 420.909424 594.741699 420.909424 C 567.231201 420.909424 509.105927 430.593506 482.849701 439.660889 C 370.032684 478.418091 285.959534 577.788147 260.957611 701.872742 C 253.144516 739.992371 255.653046 796.884277 266.89975 835.003845 C 279.092316 876.248657 302.840027 922.81897 327.204407 953.146301 C 366.59906 1001.895874 408.152283 1033.765015 467.84024 1061.892212 C 492.225433 1073.138916 500.346893 1078.464233 501.601166 1084.077271 C 502.547058 1088.148438 502.855438 1177.526123 502.547058 1282.859131 C 501.601166 1499.734253 503.472137 1485.053955 477.545135 1475.986572 Z"/>
    <path id="path2" fill="#f6b26b" stroke="none" d="M 647.233215 982.836121 C 637.857483 981.273499 629.736023 979.710876 629.119324 979.381653 C 621.922913 971.897766 618.797668 791.867188 625.048157 747.497131 C 631.607056 702.181091 662.859436 658.119385 700.670654 641.238892 C 728.797791 628.429565 765.992371 626.866943 797.882324 636.551086 C 818.196411 643.109924 822.884277 646.235168 846.323547 669.057739 C 885.697388 707.177368 900.069336 740.629944 900.069336 792.81311 C 900.069336 837.51239 886.951721 873.760986 857.878601 909.392944 C 826.009521 948.766785 763.812988 978.456543 705.358521 982.198547 C 692.857544 983.144409 678.793945 984.069458 673.48938 984.707031 C 668.493164 985.015442 656.608948 984.398743 647.233215 982.836121 Z"/>
    <path id="path3" fill="#f6b26b" stroke="none" d="M 444.730103 948.129211 C 403.464417 920.002075 367.83252 869.998169 354.406494 820.940247 C 346.285004 792.196411 346.593384 718.115723 354.406494 689.680176 C 364.398895 653.739868 374.41217 633.117432 396.905579 603.427673 C 444.09256 540.285278 510.360168 507.161865 589.10791 507.161865 C 652.866943 507.470337 659.117432 519.662842 612.238831 552.786255 C 581.2948 574.354614 541.61261 622.795837 526.294739 657.173523 C 507.234924 700.618469 505.980682 709.994202 506.289032 824.065491 C 506.289032 884.390991 505.034729 933.140564 503.163788 939.391052 C 499.092651 954.071411 488.154297 964.701355 477.853516 964.701355 C 472.528107 964.701355 459.71875 958.450867 444.730103 948.129211 Z"/>
    <text id="ParaDance" xml:space="preserve" x="1707" y="1070" font-family="Copperplate" font-size="1247" fill="#f6b26b">ParaDance</text>
    <text id="Text" xml:space="preserve" x="5785" y="2654" font-family="Copperplate" font-size="1247" fill="#f6b26b">Text</text>
</svg>
